HIERARCHY
ROOT Hips
{
	OFFSET 0.00 0.00 0.00
	CHANNELS 6 Xposition Yposition Zposition Xrotation Yrotation Zrotation
	JOINT Spine
	{
		OFFSET 0.00000 1.70439 2.55658
		CHANNELS 3 Xrotation Yrotation Zrotation
		JOINT Spine1
		{
			OFFSET 0.00000 0.59193 3.35699
			CHANNELS 3 Xrotation Yrotation Zrotation
			JOINT Spine2
			{
				OFFSET 0.00000 0.29710 3.39581
				CHANNELS 3 Xrotation Yrotation Zrotation
				JOINT Spine3
				{
					OFFSET 0.00000 0.00000 3.40878
					CHANNELS 3 Xrotation Yrotation Zrotation
					JOINT Neck
					{
						OFFSET 0.00000 -1.27828 8.94804
						CHANNELS 3 Xrotation Yrotation Zrotation
						JOINT Head
						{
							OFFSET 0.00000 -0.81390 4.61586
							CHANNELS 3 Xrotation Yrotation Zrotation
							End Site
							{
								OFFSET 0.00000 0.00001 5.51796
							}
						}
					}
					JOINT RightShoulder
					{
						OFFSET -1.18875 -1.98124 6.41925
						CHANNELS 3 Xrotation Yrotation Zrotation
						JOINT RightArm
						{
							OFFSET -5.90412 0.00000 0.00000
							CHANNELS 3 Xrotation Yrotation Zrotation
							JOINT RightForeArm
							{
								OFFSET -11.94674 0.00000 0.00000
								CHANNELS 3 Xrotation Yrotation Zrotation
								JOINT RightHand
								{
									OFFSET -10.17720 0.00000 0.00000
									CHANNELS 3 Xrotation Yrotation Zrotation
									JOINT RightHandEnd
									{
										OFFSET -2.84518 0.00000 0.00000
										CHANNELS 3 Xrotation Yrotation Zrotation
										End Site
										{
											OFFSET -2.84518 0.00000 0.00000
										}
									}
									JOINT RightHandThumb1
									{
										OFFSET -1.13807 -1.89679 -0.75871
										CHANNELS 3 Yrotation Xrotation Zrotation
										End Site
										{
											OFFSET -2.74823 -0.73639 0.00000
										}
									}
								}
							}
						}
					}
					JOINT LeftShoulder
					{
						OFFSET 1.18875 -1.98124 6.41925
						CHANNELS 3 Xrotation Yrotation Zrotation
						JOINT LeftArm
						{
							OFFSET 5.90412 0.00000 0.00000
							CHANNELS 3 Xrotation Yrotation Zrotation
							JOINT LeftForeArm
							{
								OFFSET 11.94674 0.00000 0.00000
								CHANNELS 3 Xrotation Yrotation Zrotation
								JOINT LeftHand
								{
									OFFSET 10.17720 0.00000 0.00000
									CHANNELS 3 Xrotation Yrotation Zrotation
									JOINT LeftHandEnd
									{
										OFFSET 2.84518 0.00000 0.00000
										CHANNELS 3 Xrotation Yrotation Zrotation
										End Site
										{
											OFFSET 2.84518 0.00000 0.00000
										}
									}
									JOINT LeftHandThumb1
									{
										OFFSET 1.13807 -1.89679 -0.75871
										CHANNELS 3 Yrotation Xrotation Zrotation
										End Site
										{
											OFFSET 2.74823 -0.73639 0.00000
										}
									}
								}
							}
						}
					}
				}
			}
		}
	}
	JOINT RightUpLeg
	{
		OFFSET -3.52662 0.00000 -1.03025
		CHANNELS 3 Xrotation Yrotation Zrotation
		JOINT RightLeg
		{
			OFFSET 0.00001 0.00000 -17.80159
			CHANNELS 3 Xrotation Yrotation Zrotation
			JOINT RightFoot
			{
				OFFSET 0.00001 0.00000 -16.85992
				CHANNELS 3 Xrotation Yrotation Zrotation
				JOINT RightToeBase
				{
					OFFSET 0.00000 -5.42953 -1.97619
					CHANNELS 3 Xrotation Yrotation Zrotation
					End Site
					{
						OFFSET 0.00000 -2.85300 -0.00000
					}
				}
			}
		}
	}
	JOINT LeftUpLeg
	{
		OFFSET 3.52662 0.00000 -1.03025
		CHANNELS 3 Xrotation Yrotation Zrotation
		JOINT LeftLeg
		{
			OFFSET 0.00001 0.00000 -17.80159
			CHANNELS 3 Xrotation Yrotation Zrotation
			JOINT LeftFoot
			{
				OFFSET 0.00001 0.00000 -16.85992
				CHANNELS 3 Xrotation Yrotation Zrotation
				JOINT LeftToeBase
				{
					OFFSET 0.00000 -5.42953 -1.97619
					CHANNELS 3 Xrotation Yrotation Zrotation
					End Site
					{
						OFFSET 0.00000 -2.85300 -0.00000
					}
				}
			}
		}
	}
}
MOTION
Frames: 10
Frame Time: 0.008342
 13.9064 94.5069 37.1944 4.6185 -3.7689 -137.9181 3.3606 -5.3742 -0.1407 1.3349 -0.1653 -0.3320 3.2051 -4.7904 -3.5924 0.9573 -0.3526 0.7593 7.4839 1.1384 -2.8999 6.7152 1.4735 0.1085 16.9182 -21.9809 -3.6682 -26.5594 -34.8828 -7.7716 -0.0000 0.0001 61.3938 -11.9677 41.8271 2.7447 -0.0000 0.0000 -0.0000 -0.0000 -0.0000 0.0000 21.7195 8.5793 -6.5069 38.4129 41.3979 -38.8264 -0.0000 -0.0000 -35.1245 5.9500 -2.6203 2.1514 -0.0000 -0.0000 0.0000 -0.0000 0.0000 0.0000 -4.7922 4.2049 -39.0953 20.1552 0.0000 0.0000 -8.9305 -5.8674 -16.6140 0.9933 0.0000 0.0000 -16.0696 -4.1120 27.6143 26.3809 0.0000 0.0000 -11.0701 -7.6570 21.3754 -0.0085 0.0000 -0.0000
 13.8513 94.6187 37.2029 4.6796 -3.7778 -136.9157 3.3005 -5.3347 -0.1662 1.3025 -0.1633 -0.3262 3.2013 -4.8079 -3.5462 0.9599 -0.3601 0.7787 7.4990 1.0297 -2.9432 6.7362 1.4593 0.0775 16.7076 -22.2506 -3.7431 -26.9058 -34.4610 -7.9906 -0.0000 0.0001 61.5774 -12.3638 41.7495 3.2074 0.0000 -0.0000 -0.0000 0.0000 0.0000 -0.0000 21.5599 8.7027 -6.5520 37.1834 41.8826 -37.7437 -0.0000 -0.0000 -35.3870 4.6195 -3.6955 1.7117 0.0000 0.0000 0.0000 -0.0000 -0.0000 0.0000 -4.5288 4.1298 -39.1766 20.3245 0.0000 0.0000 -9.0411 -5.9882 -17.3150 0.6327 0.0000 0.0000 -15.7014 -3.8866 26.8149 25.8734 0.0000 0.0000 -11.4019 -7.4592 20.9312 -0.0133 0.0000 -0.0000
 13.7937 94.7233 37.2113 4.6999 -3.8018 -135.9215 3.2045 -5.3003 -0.1873 1.2669 -0.1598 -0.3147 3.2002 -4.8057 -3.4998 0.9631 -0.3654 0.8027 7.5046 0.9328 -2.9710 6.7466 1.4507 0.0576 16.5154 -22.4948 -3.7967 -27.1649 -34.0766 -8.1695 -0.0000 0.0001 61.6411 -12.8338 41.6736 3.6521 -0.0000 0.0000 -0.0000 -0.0000 0.0000 0.0000 21.3900 8.8360 -6.5969 35.8870 42.3689 -36.6128 -0.0000 -0.0000 -35.7342 3.1582 -4.7740 1.1528 -0.0000 -0.0000 -0.0000 -0.0000 0.0000 0.0000 -4.3721 4.0931 -39.1366 20.5936 0.0000 0.0000 -9.1314 -6.0944 -18.1210 0.2625 0.0000 0.0000 -15.4095 -3.6581 26.0333 25.4109 0.0000 0.0000 -11.6446 -7.3004 20.5061 -0.0496 0.0000 -0.0000
 13.7301 94.8216 37.2204 4.7062 -3.7796 -134.9381 3.1318 -5.2466 -0.2019 1.2360 -0.1529 -0.3097 3.1943 -4.7908 -3.4279 0.9678 -0.3611 0.8104 7.5034 0.8502 -2.9762 6.7513 1.4497 0.0542 16.3486 -22.7014 -3.8170 -27.3457 -33.7370 -8.3241 -0.0000 0.0001 61.5891 -13.3355 41.5930 4.0456 -0.0000 0.0000 -0.0000 0.0000 0.0000 -0.0000 21.2273 8.9745 -6.6307 34.5350 42.8426 -35.4622 -0.0000 -0.0000 -36.1588 1.6311 -5.8344 0.4917 0.0000 0.0000 0.0000 0.0000 -0.0000 -0.0000 -4.2508 4.1304 -38.9969 20.9685 0.0000 0.0000 -9.2080 -6.1973 -18.9945 -0.1021 0.0000 -0.0000 -15.1117 -3.3919 25.2994 24.9709 0.0000 0.0000 -11.7936 -7.1963 20.1036 -0.0873 0.0000 -0.0000
 13.6629 94.9139 37.2299 4.7003 -3.7598 -133.9553 3.0502 -5.2047 -0.2181 1.2074 -0.1492 -0.3044 3.1879 -4.7608 -3.3478 0.9724 -0.3526 0.8164 7.4983 0.7879 -2.9635 6.7484 1.4561 0.0725 16.2033 -22.8738 -3.8235 -27.4317 -33.4434 -8.4264 -0.0000 0.0001 61.4113 -13.8450 41.5122 4.3773 -0.0000 0.0000 -0.0000 0.0000 0.0000 -0.0000 21.0589 9.1172 -6.6619 33.1379 43.3166 -34.2893 -0.0000 -0.0000 -36.6581 0.1435 -6.8468 -0.2339 0.0000 -0.0000 0.0000 -0.0000 -0.0000 0.0000 -4.1950 4.1971 -38.7578 21.4384 0.0000 0.0000 -9.2664 -6.3049 -19.9419 -0.4501 0.0000 -0.0000 -14.8613 -3.1291 24.5965 24.5913 0.0000 0.0000 -11.8751 -7.1581 19.7274 -0.1020 0.0000 -0.0000
 13.5916 95.0003 37.2397 4.6826 -3.7342 -132.9773 2.9680 -5.1699 -0.2283 1.1746 -0.1488 -0.2964 3.1830 -4.7135 -3.2679 0.9786 -0.3392 0.8201 7.4908 0.7432 -2.9293 6.7426 1.4757 0.1133 16.0817 -23.0085 -3.8075 -27.4322 -33.1968 -8.4912 -0.0000 0.0001 61.1137 -14.3427 41.4196 4.6341 -0.0000 0.0000 -0.0000 -0.0000 -0.0000 -0.0000 20.9021 9.2570 -6.6871 31.7048 43.7814 -33.1191 -0.0000 -0.0000 -37.2245 -1.2385 -7.8041 -0.9796 -0.0000 -0.0000 -0.0000 0.0000 -0.0000 0.0000 -4.1991 4.3029 -38.4274 22.0114 0.0000 0.0000 -9.3153 -6.4246 -20.9420 -0.7730 0.0000 -0.0000 -14.6463 -2.8623 23.9325 24.2693 0.0000 0.0000 -11.9052 -7.1838 19.3741 -0.0815 0.0000 -0.0000
 13.5155 95.0808 37.2492 4.6464 -3.6922 -132.0069 2.8856 -5.1276 -0.2319 1.1389 -0.1520 -0.2881 3.1816 -4.6525 -3.1865 0.9852 -0.3230 0.8216 7.4839 0.7210 -2.8724 6.7363 1.5075 0.1786 15.9771 -23.1040 -3.7775 -27.3316 -32.9951 -8.5064 -0.0000 0.0001 60.6975 -14.8207 41.3160 4.8119 -0.0000 0.0000 -0.0000 -0.0000 -0.0000 0.0000 20.7527 9.3940 -6.7006 30.2572 44.2368 -31.9694 -0.0000 -0.0000 -37.8515 -2.4586 -8.6988 -1.7014 -0.0000 -0.0000 0.0000 -0.0000 0.0000 0.0000 -4.2618 4.4660 -38.0174 22.7012 0.0000 0.0000 -9.3655 -6.5618 -21.9725 -1.0671 0.0000 -0.0000 -14.4535 -2.5740 23.3019 23.9929 0.0000 0.0000 -11.8989 -7.2634 19.0459 -0.0230 0.0000 -0.0000
 13.4348 95.1553 37.2580 4.5797 -3.6432 -131.0425 2.7825 -5.0728 -0.2305 1.1067 -0.1596 -0.2800 3.1815 -4.5806 -3.1008 0.9929 -0.3009 0.8186 7.4810 0.7195 -2.7954 6.7316 1.5520 0.2697 15.8959 -23.1627 -3.7380 -27.1329 -32.8404 -8.4634 -0.0000 0.0001 60.1631 -15.2829 41.1982 4.9191 0.0000 -0.0000 -0.0000 -0.0000 -0.0000 -0.0000 20.6113 9.5218 -6.7074 28.8044 44.6909 -30.8432 -0.0000 -0.0000 -38.5373 -3.4905 -9.5310 -2.3608 0.0000 -0.0000 0.0000 -0.0000 0.0000 0.0000 -4.3988 4.6929 -37.5483 23.5156 0.0000 0.0000 -9.4214 -6.7160 -23.0106 -1.3353 0.0000 -0.0000 -14.2924 -2.2587 22.6940 23.7569 0.0000 0.0000 -11.8750 -7.3816 18.7370 0.0682 0.0000 0.0000
 13.3493 95.2259 37.2659 4.5169 -3.5792 -130.0757 2.6908 -5.0196 -0.2250 1.0735 -0.1766 -0.2754 3.1806 -4.4971 -3.0072 1.0015 -0.2745 0.8069 7.4888 0.7365 -2.6970 6.7285 1.6075 0.3844 15.8387 -23.1844 -3.6844 -26.8366 -32.7286 -8.3723 -0.0000 0.0001 59.5212 -15.7399 41.0616 4.9668 0.0000 0.0000 -0.0000 0.0000 0.0000 -0.0000 20.4903 9.6324 -6.7047 27.3640 45.1389 -29.7645 -0.0000 -0.0000 -39.2750 -4.3420 -10.3141 -2.9295 0.0000 -0.0000 0.0000 0.0000 0.0000 0.0000 -4.5644 4.9566 -37.0584 24.4300 0.0000 0.0000 -9.4664 -6.8848 -24.0250 -1.5882 0.0000 -0.0000 -14.1280 -1.9397 22.0965 23.5620 0.0000 0.0000 -11.8619 -7.5190 18.4302 0.1817 0.0000 0.0000
 13.2584 95.2930 37.2725 4.4552 -3.4870 -129.1040 2.6141 -4.9571 -0.2181 1.0403 -0.1984 -0.2698 3.1820 -4.4040 -2.9184 1.0120 -0.2515 0.7947 7.5049 0.7796 -2.5784 6.7327 1.6659 0.5218 15.8069 -23.1601 -3.6309 -26.4449 -32.6734 -8.2215 -0.0000 0.0001 58.7757 -16.1951 40.8964 4.9596 0.0000 -0.0000 0.0000 0.0000 0.0000 0.0000 20.3946 9.7249 -6.6847 25.9617 45.5729 -28.7665 -0.0000 -0.0000 -40.0529 -5.0398 -11.0620 -3.3955 0.0000 0.0000 0.0000 0.0000 -0.0000 -0.0000 -4.7476 5.2716 -36.5760 25.4472 0.0000 0.0000 -9.4921 -7.0579 -24.9894 -1.8402 0.0000 -0.0000 -13.9380 -1.6030 21.5009 23.3868 0.0000 0.0000 -11.8692 -7.6562 18.1168 0.3019 0.0000 0.0000
